<svg width="320" height="328" viewBox="0 0 320 328" fill="none" xmlns="http://www.w3.org/2000/svg">
<path d="M157.663 0.00251652C144.503 0.0657978 131.94 1.2017 120.88 3.18873C88.3059 9.02959 82.3957 21.2555 82.3957 43.8058V73.5828H159.368V83.5084H53.5056C31.1367 83.5084 11.5483 97.1551 5.41986 123.126C-1.64992 152.884 -1.96164 171.457 5.41986 202.531C10.8905 225.663 23.9578 242.142 46.3298 242.142H72.7979V206.445C72.7979 180.655 94.7772 157.908 120.884 157.908H197.769C219.172 157.908 236.254 140.019 236.254 118.206V43.809C236.254 22.6319 218.654 6.72615 197.769 3.19189C184.54 0.958064 170.821 -0.0576007 157.663 0.00251652ZM116.036 23.9513C123.985 23.9513 130.481 30.6496 130.481 38.8888C130.481 47.0933 123.988 53.7283 116.036 53.7283C108.056 53.7283 101.594 47.0933 101.594 38.8888C101.591 30.6496 108.056 23.9513 116.036 23.9513Z" fill="url(#paint0_linear_197_1354)"/>
<path d="M245.852 83.508V118.205C245.852 145.1 223.384 167.739 197.767 167.739H120.881C99.8216 167.739 82.3965 186.036 82.3965 207.444V281.847C82.3965 303.018 100.532 315.475 120.881 321.547C145.245 328.815 168.612 330.131 197.767 321.547C217.143 315.848 236.251 304.388 236.251 281.847V252.067H159.369V242.138H274.743C297.111 242.138 305.453 226.302 313.234 202.527C321.27 178.053 320.924 154.516 313.234 123.122C307.704 100.515 297.146 83.5049 274.743 83.5049L245.852 83.508ZM202.608 271.918C210.591 271.918 217.053 278.554 217.053 286.764C217.053 294.997 210.588 301.695 202.608 301.695C194.659 301.695 188.166 294.997 188.166 286.764C188.166 278.554 194.659 271.918 202.608 271.918Z" fill="url(#paint1_linear_197_1354)"/>
<defs>
<linearGradient id="paint0_linear_197_1354" x1="-7.71635" y1="9.31319" x2="172.045" y2="160.342" gradientUnits="userSpaceOnUse">
<stop stop-color="#5A9FD4"/>
<stop offset="1" stop-color="#306998"/>
</linearGradient>
<linearGradient id="paint1_linear_197_1354" x1="236.616" y1="258.52" x2="171.683" y2="168.811" gradientUnits="userSpaceOnUse">
<stop stop-color="#FFD43B"/>
<stop offset="1" stop-color="#FFE873"/>
</linearGradient>
</defs>
</svg>
