<svg width="62" height="22" viewBox="0 0 62 22" fill="none" xmlns="http://www.w3.org/2000/svg">
<path d="M17.312 5.032V11.368L14.84 13.84H7.64V21.04H9.56V22H0.2V21.04H2.12V3.76H0.2V2.8H15.08L17.312 5.032ZM7.64 12.88H11.792V3.76H7.64V12.88Z" fill="#7404FA"/>
<path d="M33.4994 10.072V19.528L31.0274 22H22.1954L19.7234 19.528V10.072L22.1954 7.6H31.0274L33.4994 10.072ZM25.4834 8.56V21.04H27.7394V8.56H25.4834ZM61.4369 10.072V19.528L58.9649 22H50.1329L47.6609 19.528V10.072L50.1329 7.6H58.9649L61.4369 10.072ZM53.4209 8.56V21.04H55.6769V8.56H53.4209Z" fill="black"/>
<path d="M42.6153 1.84V7.6H45.7353V8.56H42.6153V19.768L40.3833 22H35.1753V21.04H37.0953V8.56H35.1753V7.6H37.0953V3.112L39.3273 0.879999H44.8233L46.8153 2.872L46.0713 3.616L44.2953 1.84H42.6153Z" fill="#51AE60"/>
</svg>
